<?xml version="1.0" encoding="UTF-8" standalone="no"?>
<svg
   xmlns:dc="http://purl.org/dc/elements/1.1/"
   xmlns:cc="http://creativecommons.org/ns#"
   xmlns:rdf="http://www.w3.org/1999/02/22-rdf-syntax-ns#"
   xmlns:svg="http://www.w3.org/2000/svg"
   xmlns="http://www.w3.org/2000/svg"
   viewBox="0 0 396.64001 192.97333"
   height="192.97333"
   width="396.64001"
   xml:space="preserve"
   id="svg2"
   version="1.1"><metadata
     id="metadata8"><rdf:RDF><cc:Work
         rdf:about=""><dc:format>image/svg+xml</dc:format><dc:type
           rdf:resource="http://purl.org/dc/dcmitype/StillImage" /></cc:Work></rdf:RDF></metadata><defs
     id="defs6" /><g
     transform="matrix(1.3333333,0,0,-1.3333333,0,192.97333)"
     id="g10"><g
       transform="scale(0.1)"
       id="g12"><path
         id="path14"
         style="fill:#4699da;fill-opacity:1;fill-rule:nonzero;stroke:none"
         d="m 472.559,1070.17 c 0,-9.87 6.015,-16.79 16.929,-22.8 0,0 -0.039,1.68 -0.097,4.38 l -6.864,6.87 3.629,6.6 2.961,0.83 c -0.226,11.49 -0.461,24.35 -0.5,26.16 l -0.547,-0.07 c -10.019,-5.53 -15.511,-12.32 -15.511,-21.97 z m -240.047,-220.662 0.711,2.652 -5.285,11.481 -6.266,2.324 z m 424.547,263.372 0.238,-4.54 10.18,3.05 3.109,6.21 -7.035,9.21 3.742,5.61 9.508,-6.77 1.742,1.39 -1.891,1.37 -2.152,4.06 3.902,2.24 -3.839,5.02 -8.887,-4.51 -3.121,-5.38 -1.766,-4.89 3.93,-6.59 -1.446,-3.1 z m 35.578,165.67 -3.578,5.73 -7.633,3.83 -5.992,-4.56 7.644,-4.06 8.59,-6.21 z m -425.032,-21.41 41.485,-41.49 c -48.36,-50.72 -78.367,-119.08 -79.313,-194.31 h -58.699 c 0.945,91.42 37.527,174.44 96.527,235.8 z m -25.324,-323.331 -3.465,0.644 -3.296,3.656 -16.457,1.461 5.121,-6.941 -15.278,2.894 4.016,3.668 -3.731,3.668 -11.015,-4.781 -3.926,-7.308 1.504,-16.707 12.641,-30.344 6.117,-9.52 3.492,-1.293 -9.609,18.188 -2.086,9.258 2.16,2.281 -1.317,5.105 5.743,-0.769 8.851,-13.395 2.227,-0.898 -0.25,9.769 3.582,-2.082 0.781,-5.332 9.324,-2.465 3.879,2.797 1.344,-0.941 -0.176,-7.133 4.129,-5.047 4.969,-1.129 10.89,-18.418 6.59,-1.84 2.051,8.622 c 11.473,-18.946 25.074,-36.473 40.488,-52.235 l -41.508,-41.496 c -59.484,60.641 -96.875,143.027 -98.937,233.994 h 58.723 c 0.722,-26.342 5.023,-51.802 12.429,-75.931 z m 57.969,75.931 c 0.211,-5.72 0.695,-11.369 1.344,-16.97 l -7.199,-1.629 -1.469,-7.317 -14.988,-19.011 0.382,-26.18 -15.363,-5.121 -8.406,-0.074 c -7.793,24.164 -12.344,49.765 -13.09,76.302 z m 13.152,-165.224 13.164,-7.688 2.735,-1.851 -9.547,-9.536 c -4.477,4.594 -8.75,9.383 -12.902,14.278 z m 53.641,313.194 41.492,-41.5 c -8.676,-9.51 -16.086,-20.17 -22.027,-31.73 l -2.906,0.18 -5.844,-1.83 -2,0.19 -6.242,-5.77 7.882,1.26 7.047,1.77 c -0.41,-0.9 -0.832,-1.79 -1.242,-2.7 l -6.168,-3.81 h -2.933 l -9.149,-6.95 -8.777,0.73 -12.778,-23.77 2.563,-4.76 -6.965,-7.67 -1.043,-10.01 h -26.23 c 0.922,52.65 21.754,100.51 55.32,136.37 z m 42.527,-171.339 2.918,1.469 7.723,-5.781 -3.344,-2.727 8.625,-5.738 -0.531,6.168 4.586,7.613 4.82,-5.098 4.926,-7.078 -8.879,-1.972 4.027,-8.047 6.192,3.269 -0.793,2.586 4.625,3.137 2.734,12.781 c 3.367,-7.598 7.93,-14.562 13.473,-20.613 L 419.18,924.844 c -19.817,20.804 -33.043,47.886 -36.375,77.936 l 8.492,-9.065 7.992,0.16 z m -59.609,43.869 1.105,11.71 6.95,4.03 12.433,-2.2 1.887,-2.26 c -1.094,-6.59 -1.738,-13.33 -1.887,-20.18 h -14.097 z m -19.293,-40.279 -5.57,-8.695 h -9.508 l -0.735,0.547 c -1.617,9.117 -2.66,18.437 -3.007,27.927 h 17.703 l -4.254,-14.174 z m 38.809,-114.805 c -4.25,4.399 -8.317,8.989 -12.157,13.746 l 1.789,14.836 -6.214,14.266 -1.465,22.301 -6.95,13.531 1.481,8.422 -8.418,16.074 -7.32,3.652 2.968,8.559 -3.07,6.777 3.035,7.71 h 8.028 l 2.836,4.71 h 13.71 l 2.153,-4.05 -2.586,-13.952 -1.668,-2.406 5.148,-11.227 -3.382,-1.859 -2.36,2.984 -0.996,-1.117 2.336,-6.656 4.027,-7.777 1.891,0.187 1.105,6.961 -1.949,2.567 -0.226,4.71 -0.571,9.743 2.86,17.232 -2.785,4.66 h 9.843 c 1.942,-36.013 16.985,-68.592 40.403,-93.088 z m 353.429,-56.922 c 48.297,49.907 78.703,117.219 80.742,191.506 h 58.723 C 860.309,919.27 823.324,837.285 764.402,776.746 Z m -16.183,16.188 4.562,5.113 -4.301,22.699 -3.019,1.192 1.851,3.84 -9.82,3.101 -1.902,-8.133 -0.957,-10.285 -2.067,-1.879 -17.898,17.903 c 35.59,37.144 58.078,86.871 60.09,141.767 h 58.773 C 790.012,938.656 760.91,874.23 714.715,826.441 Z m -51.75,-54.863 5.531,11.851 -2.152,5.258 8.132,7.18 v 4.289 l -6.937,4.316 5.742,11.457 8.602,11.235 -8.602,9.308 h -6.465 l -4.015,6.477 c 3.457,2.871 6.863,5.804 10.132,8.883 L 706.5,818.262 c -15.566,-14.813 -32.855,-27.821 -51.527,-38.703 z m -7.93,114.558 -5.645,5.617 4.325,5.618 5.422,11.023 -2.114,3.125 3.606,8.16 -0.414,7.379 -2.172,7.625 -5.125,1.824 -1.887,-4.328 -3.047,0.82 c 4.426,7.051 9.086,13.68 12.27,21.458 l 5.297,2.273 2.945,4 1.43,-1.668 3.578,4.301 -2.86,3.594 2.637,0.707 4.774,-1.915 9.074,-0.25 5.496,2.875 14.332,3.809 -2.695,4.77 -0.934,5.765 7.695,-3.363 2.871,1.668 -1.429,5.984 -9.45,-3.543 -10.39,2.121 -7.895,16.174 h 44.926 c -1.988,-51.705 -23.195,-98.525 -56.672,-133.576 l -6.191,6.172 2.66,8.258 -4.773,18.148 z m -21.16,221.053 41.547,41.53 c 9.718,-10.53 18.32,-22.11 25.707,-34.5 l -5.199,-1.42 0.277,-9.28 15.586,-9.83 c 3.804,-8.46 7.062,-17.23 9.722,-26.24 l -2.734,-3.99 -5.609,-3.57 -1.414,-8.62 -3.844,-2.14 -3.18,-3.8 -3.269,1.17 -5.719,0.25 3.344,4.52 2.375,11.72 3.812,2.38 -11.211,10.76 -8.367,-2.87 -1.902,-7.89 -5.27,-5.72 -5.48,4.54 -1.953,4.81 3.132,1.95 1.727,-3.17 2.574,0.93 -1.105,5.29 -3.668,0.22 -0.25,-2.14 -2.383,-0.5 -12.895,15.05 -4.363,3.38 1.668,1.8 3.926,1.37 -3.629,1.41 c 0,0 -4.574,-1.03 -5.082,-1.03 l 2.586,-3.27 -6.555,0.13 c -3.902,5.89 -8.203,11.51 -12.902,16.77 z m 6.453,-226.557 -12.691,3.625 -3.832,-1.422 -7.161,5.493 -6.734,2.425 c 3.328,2.407 6.562,4.922 9.668,7.579 l 10.469,-7.368 7.957,-4.215 3.965,-3.957 z m -22.488,195.007 5.246,1.22 -0.25,1.26 -5.235,3.5 1.789,11.08 6.282,6.27 c 3.937,-4.46 7.582,-9.19 10.925,-14.15 l -2.199,-6.81 -5.746,4.08 -4.359,-1.19 2.137,-4.04 h 2.164 l -2.387,-5.98 -1.68,2.38 z m 70.484,-40.38 10.527,5.74 10.754,1.68 2.375,5.25 5.981,3.59 2.312,5.01 1.864,8.68 c 0.843,-3.06 1.64,-6.15 2.363,-9.27 l -5.695,-16.99 -0.25,-5.73 8.304,11.03 c 1.715,-10.07 2.735,-20.38 2.91,-30.89 h -51.464 l -1.196,4.47 5.969,4.76 1.191,2.89 2.625,1.9 6.938,0.72 0.719,3.1 z m 11.758,137.65 14.125,-0.62 3.332,-4.07 -1.668,-5.98 19.59,-12.18 3.832,0.48 25.07,-28.67 10.258,3.58 c 15.887,-34.17 24.984,-72.11 25.496,-112.09 h -58.762 c -0.25,15.33 -2.152,30.26 -5.445,44.67 l 2.684,3.63 3.632,18.39 -2.734,19.78 -7.074,22.73 -16.387,23.96 3.969,-2.11 2,2.01 -13.141,8.9 -0.871,-2.92 13.152,-18.79 7.461,-15.41 5.293,-15.25 1.692,-10.28 2.722,-17.27 -4.933,-0.36 c 0,0 -5.668,10.57 -7.41,14.95 l 2.636,3.92 -5.023,7.17 v 7.16 l -3.578,4.54 -4.453,-0.57 c -1.59,2.96 -3.254,5.89 -4.996,8.76 l 3.144,-1.61 0.86,0.85 -1.692,3.7 3.828,2.15 -1.726,2.16 -5.684,-2.16 2.066,8.92 -3.343,1.92 -3.035,-7.11 c -6.403,9.59 -13.524,18.68 -21.356,27.13 z m 74.789,75.25 c 58.426,-61.25 94.598,-143.88 95.543,-234.8 h -58.699 c -0.571,45.02 -11.563,87.57 -30.657,125.36 l 0.524,1.06 4.062,-2.14 0.961,3.1 -10.519,18.4 -12.43,17.21 -14.582,12.17 c -4.996,6.26 -10.23,12.31 -15.727,18.13 z m -172.992,-348.898 -0.051,0.293 0.125,-0.242 c -0.027,-0.012 -0.051,-0.043 -0.074,-0.051 z M 516.75,660.387 c 197.02,0 357.309,160.297 357.309,357.333 0,184.8 -141.02,337.28 -321.098,355.49 -0.148,-0.69 -0.297,-1.39 -0.434,-2.06 -0.711,-3.47 -1.355,-6.6 -1.879,-9.38 80.641,-7.89 153.254,-43.6 208.075,-97.39 l -39.446,-39.43 1.504,6.93 -5.144,2.3 -7.114,0.41 1.52,4.54 -4.789,16.15 -9.809,10.76 -30.8,16.26 -2.637,-2.83 -5.594,-1.63 c 10.566,-15.59 16.297,-33.59 16.297,-51.81 0,-2.37 -0.063,-4.69 -0.188,-6.98 l 15.293,-19.19 -7.175,-1.68 4.738,-7.13 -13.477,-13.47 -5.418,10.32 c -2.586,-7.2 -5.992,-13.9 -10.195,-20.13 1.008,-0.93 2.039,-1.83 3.02,-2.79 l -41.493,-41.49 c -2.523,2.4 -5.148,4.69 -7.832,6.92 -3.964,-1.85 -8.019,-3.57 -12.16,-5.16 1.196,-0.9 2.375,-1.8 3.543,-2.75 l -2.113,-2.11 -4.848,-2.73 -1.828,-4.85 -3.019,3.03 -8.75,-2.93 2.386,-3.84 6.051,1.61 3.942,-0.3 0.3,2.13 3.032,1.51 0.921,1.82 5.446,1.52 4.25,0.19 c 0.82,-0.75 1.664,-1.49 2.484,-2.26 l -16.469,-16.47 -1.23,1.78 -17.192,-2.86 -3.832,-3.84 -3.789,-0.44 10.704,10.23 -3.844,1.92 -9.942,-13.35 2.907,0.31 -0.172,-4.91 3.652,-1.41 0.723,-5.26 -5.992,1.21 -6.266,-1.16 -15.09,7.77 c 0,0 -0.82,-40.57 -1.242,-60.95 35.637,-11.99 73.492,-29.309 73.492,-74.801 0,-19.965 -8.652,-36.118 -25.66,-48.039 l 0.148,-0.04 c -0.246,-0.171 -0.519,-0.339 -0.781,-0.507 l -0.074,0.047 c -0.387,-0.258 -0.746,-0.536 -1.145,-0.793 -14.422,-9.532 -32.953,-14.61 -49.043,-19.649 -0.086,-0.039 -0.468,-31.844 -0.468,-31.844 25.57,-12.711 56.586,-31.214 53.726,-84.101 -0.347,-13.024 -5.422,-16.598 -9.769,-17.781 v -0.012 c -14.957,-3.699 -30.41,-6.168 -46.207,-7.301 -0.09,-4.101 -0.153,-8.027 -0.211,-11.66 68.828,4.719 131.07,33.797 178.136,78.68 l 41.497,-41.493 C 694.02,708.781 609.609,671.977 516.75,671.977 c -92.352,0 -176.359,36.406 -238.441,95.617 l 41.519,41.511 c 46.594,-44.007 107.852,-72.621 175.602,-77.625 -0.075,3.59 -0.137,7.5 -0.2,11.653 -64.464,5.012 -122.769,32.308 -167.199,74.172 l 11.09,11.101 15.192,-1.754 8.078,8.715 21.211,-0.734 3.132,7.359 -0.734,3.102 c 30.719,-23.332 67.813,-38.656 108.16,-42.867 -0.07,4.523 -0.148,8.484 -0.211,11.683 -44.578,4.961 -84.879,24.227 -116.191,53.129 l 41.543,41.539 c 10.07,-9 21.383,-16.625 33.664,-22.586 0.922,3.957 2.34,7.602 4.176,10.906 -10.762,5.329 -20.735,12.016 -29.633,19.891 l 41.644,41.625 c 6.586,-5.305 14.094,-9.496 22.227,-12.387 -0.074,4.141 -0.164,8.461 -0.238,12.52 -4.934,2.148 -9.559,4.875 -13.762,8.125 l 11.762,11.738 c -4.129,1.25 -8.282,2.563 -12.43,3.981 l -7.832,-7.844 c -3.981,4.41 -7.336,9.371 -9.984,14.766 -7.172,3.16 -14.094,6.75 -20.547,10.997 -25.582,16.82 -38.551,40.56 -38.551,70.54 0,22.9 6.402,40.24 16.82,53.68 l -41.422,41.42 c 29.836,28.49 68.2,48.12 110.836,54.57 -0.074,4.03 -0.148,7.94 -0.222,11.67 -45.746,-6.58 -86.918,-27.5 -118.805,-58.05 l -6.996,6.99 c -1.594,-2.78 -3.457,-6.33 -5.57,-10.82 l 4.398,-4.41 c -35.652,-37.96 -57.777,-88.71 -58.699,-144.56 h -58.762 c 0.934,72.04 29.648,137.5 75.918,186.11 l 18.672,-18.66 c 0.844,-0.02 1.738,0 2.633,0.07 3.308,0.24 7,1.27 10.593,3.09 l -23.718,23.72 c 12.531,12.12 26.218,23.06 40.875,32.65 1.152,3.94 2.261,7.39 2.882,8.64 0.719,1.44 4.45,6.36 8.989,12.04 -22.289,-12.34 -42.778,-27.55 -60.938,-45.14 l -41.508,41.5 c 54.438,52.97 126.188,88.22 205.86,96.29 -0.274,1.42 -0.473,2.52 -0.473,2.52 -0.547,2.76 -1.144,5.76 -1.742,8.92 -179.543,-18.72 -319.977,-170.95 -319.977,-355.37 0,-197.036 160.289,-357.333 357.309,-357.333 z M 349.09,1175.64 c 0.398,2.39 0.871,4.32 1.492,6.44 -2.187,-0.54 -4.699,-0.79 -7.172,-0.74 z M 552.016,953.059 c 0,2.984 -3.926,5.906 -9.77,8.64 l -1.043,0.016 c -0.074,-2.422 -0.273,-14.27 -0.398,-20.074 7.211,3.25 11.211,6.718 11.211,11.418 z m 33.738,377.691 3.519,3.14 -6.652,2.82 -17.539,0.34 -4.562,-3.16 -10.329,0.85 -0.113,-2.5 c 6.563,-0.42 12.977,-1.05 18.051,-1.92 l 8.527,0.77 z m 13.277,-112.65 c -16.484,6.81 -33.961,11.67 -52.183,14.22 -0.09,-3.85 -0.164,-7.78 -0.25,-11.68 16.804,-2.46 32.941,-6.95 48.156,-13.25 2.039,3.2 3.48,6.74 4.277,10.71 z m 222.43,51.68 c 27.734,-91.01 93.246,-70.79 137.105,-166.3 -4.601,32.11 31.922,134.46 -53.804,197.71 28.668,-35.11 20.164,-100.14 37.121,-142.66 -33.215,71.56 -104.77,83.33 -120.422,111.25 z m -628.754,10.67 c 19.789,23.57 26.504,55.98 57.531,79.37 -63.722,-13.59 -117.597,-70.62 -132.105,-140.42 20.273,23.61 54.797,37.49 74.574,61.05 z M 901.246,1075.3 c -4.351,-92.495 47.274,-108.796 44.043,-189.695 21.953,56.438 107.401,72.45 75.411,207.105 0.59,-51.63 -45.403,-81.67 -64.622,-162.433 3.781,90.913 -31.848,101.003 -54.832,145.023 z M 1032.75,973.059 C 1015.7,922.121 956.824,894.5 918.785,820.219 c 21.555,87.652 -10.379,111.027 -13.734,158.969 -32.012,-85.149 10.117,-115.704 -13.59,-204.407 28.242,38.426 140.099,59.032 141.289,198.278 z m -66.602,71.491 c -9.796,45.88 -32.992,77.35 -62.043,101.28 -21.296,17.54 -26.925,22.29 -34.921,33.47 30.433,-102.28 77.222,-102.89 97.535,-180.171 2.949,40.141 85.971,106.571 7.41,217.481 20.285,-51.73 -10.207,-122.69 -7.981,-172.06 z M 163.559,1179.3 c -7.996,-11.18 -13.614,-15.93 -34.922,-33.47 -29.0393,-23.93 -52.2464,-55.4 -62.0198,-101.28 2.2031,49.37 -28.293,120.33 -7.9922,172.06 -78.5664,-110.91 4.4648,-177.34 7.4102,-217.481 20.3007,77.281 67.1018,77.891 97.5238,180.171 z m -32.063,-104 C 108.523,1031.28 72.8711,1021.19 76.6758,930.277 57.4453,1011.04 11.4609,1041.08 12.0586,1092.71 -19.9414,958.055 65.5,942.043 87.4531,885.605 c -3.2304,80.899 48.3949,97.2 44.0429,189.695 z M 709.793,619.805 c -36.176,9.652 -73.418,14.445 -101.164,15.14 -34.582,0.864 -65.488,-5.679 -92.25,-15.664 -26.766,9.985 -57.668,16.528 -92.254,15.664 -27.746,-0.695 -64.988,-5.488 -101.164,-15.14 -55.641,-14.836 -103.762,-26.297 -145.68,-5.086 40.164,-35.656 87.078,-48.387 154.828,-41.098 56.438,6.098 101.938,34.274 155.118,33.906 0.718,-0.011 1.39,-0.062 2.086,-0.074 -56.04,-28.281 -87.676,-68.164 -87.676,-68.164 l 25.644,-3.457 c 0,0 27.028,54.281 89.082,68.379 62.082,-14.098 89.082,-68.379 89.082,-68.379 l 25.66,3.457 c 0,0 -31.625,39.883 -87.667,68.164 0.699,0.012 1.371,0.063 2.066,0.074 53.191,0.368 98.703,-27.808 155.113,-33.906 67.778,-7.289 114.68,5.442 154.844,41.098 -41.918,-21.211 -90.039,-9.75 -145.668,5.086 z m 147.781,112.433 c 36.758,51.297 13.625,104.95 21.504,142.188 C 819.906,785.352 852.43,747.379 812.648,690.25 861.043,724.734 968.16,692.055 1009.28,850.73 976.305,785.797 895.688,774.934 857.574,732.238 Z m -96.738,-79.359 c 62.402,59.101 42.191,97.098 61.781,127.336 C 730.105,697.438 752.582,671.668 719.652,626.102 754.383,642.691 876.969,588.188 946.68,721.582 906.105,673.477 821.871,688.891 760.836,652.879 Z M 313.09,626.102 c -32.918,45.566 -10.442,71.336 -102.953,154.113 19.59,-30.238 -0.61,-68.235 61.781,-127.336 -61.035,36.012 -145.27,20.598 -185.8438,68.703 C 155.785,588.188 278.359,642.691 313.09,626.102 Z M 141.293,774.781 C 117.574,863.484 159.691,894.039 127.691,979.188 124.359,931.246 92.4141,907.871 113.969,820.219 75.918,894.5 17.043,922.121 0,973.059 1.19531,833.813 113.051,813.207 141.293,774.781 Z m 12.367,99.645 C 161.531,837.188 138.422,783.535 175.168,732.238 137.066,774.934 56.4375,785.797 23.4453,850.73 64.5938,692.055 171.711,724.734 220.082,690.25 180.313,747.379 212.848,785.352 153.66,874.426 Z M 74.1758,1103.48 c 43.8712,95.51 109.3832,75.29 137.1052,166.3 -15.652,-27.92 -87.191,-39.69 -120.4099,-111.25 16.9569,42.52 8.4531,107.55 37.1209,142.66 -85.7264,-63.25 -49.2029,-165.6 -53.8162,-197.71 z m 765.8712,176.97 c 19.766,-23.56 54.297,-37.44 74.562,-61.05 -14.496,69.8 -68.382,126.83 -132.105,140.42 31.039,-23.39 37.754,-55.8 57.543,-79.37" /><path
         id="path16"
         style="fill:#4699da;fill-opacity:1;fill-rule:nonzero;stroke:none"
         d="m 538.168,815.676 c 18.41,-9.313 35.43,-22.18 42.539,-46.61 3.109,40.43 -19.566,57.973 -42.066,69.813 0.027,-0.051 -0.485,-23.215 -0.473,-23.203" /><path
         id="path18"
         style="fill:#4699da;fill-opacity:1;fill-rule:nonzero;stroke:none"
         d="m 660.629,1226.03 c 0,36.76 -26.664,77.51 -91.953,91.9 -4.824,1.06 -12.207,1.81 -19.914,2.29 -0.125,-5.52 -0.426,-18.21 -0.426,-18.21 -0.098,-3.97 -0.422,-18.69 -0.496,-21.85 6.027,-0.52 10.48,-1.27 12.543,-1.77 37.953,-9.07 51.527,-30.83 51.527,-52.36 0,-34.86 -29.836,-48.01 -66.469,-57.94 -3.976,-1.08 -8.043,-2.12 -12.144,-3.16 -11.113,-2.77 -22.574,-5.44 -33.863,-8.48 -4.051,-1.09 -8.067,-2.24 -12.036,-3.45 v 0 c -40.625,-12.37 -75.531,-31.95 -75.531,-82.15 0,-49.71 39.817,-68.3 78.715,-80.268 -0.273,14.278 -0.547,28.688 -0.82,43.098 -17.18,8.03 -29.289,18.64 -29.289,36.49 0,17.42 11.027,27.94 27.871,35.56 3.742,1.68 7.758,3.23 12.008,4.68 9.699,3.3 20.574,6.08 32,8.85 3.976,0.97 8.043,1.95 12.132,2.94 v 0 c 54.77,13.26 116.145,30.39 116.145,103.83" /><path
         id="path20"
         style="fill:#4699da;fill-opacity:1;fill-rule:nonzero;stroke:none"
         d="m 463.855,875.395 c 0.098,-20.079 14.844,-31.036 29.649,-39.293 -0.063,3.378 -0.633,34.453 -0.649,34.992 0.325,6.195 6.329,9.906 11.176,12.199 7.125,3.371 14.336,5.801 23.52,8.988 4.379,1.512 8.156,3.004 12.347,4.266 v 0 c 29.723,8.949 64.071,20.367 64.071,56.512 0,36.207 -29.465,51.011 -61.672,62.131 -0.238,-11.53 -0.574,-28.342 -0.809,-39.971 13.614,-5.348 22.614,-11.848 22.614,-22.16 0,-12.942 -13.825,-20.395 -23.622,-24.168 -4.078,-1.594 -10.292,-3.661 -12.007,-4.196 -7.907,-2.461 -16.41,-5.293 -24.34,-8.215 -4.176,-1.566 -8.242,-3.265 -12.035,-5.21 -13.922,-7.149 -28.34,-17.579 -28.243,-35.875" /><path
         id="path22"
         style="fill:#4699da;fill-opacity:1;fill-rule:nonzero;stroke:none"
         d="m 406.176,1244.1 -9.199,-2.01 13.597,21.03 12.906,-0.4 z m 77.793,70.4 c -19.766,-5.65 -31.403,-13.11 -35.801,-14.59 -12.816,-4.25 -30.879,-4.98 -49.527,-25.28 -3.332,-3.61 -11.387,-13.8 -17.129,-22.12 -5.617,-8.11 -5.867,-21.14 -10.02,-28.12 -5.969,-10.14 -4.551,-15.94 -4.551,-15.94 l 0.176,-0.31 c -0.199,-1.25 -1.394,-6.63 -6.851,-12.71 -6.239,-6.92 -14.446,-10.75 -24.203,-9.19 8.48,-4.25 20.238,1.69 20.238,1.69 0,0 -2.238,-6.41 -4.5,-16.9 9.547,21.6 18.273,29.48 21.019,31.67 4.118,-0.94 12.594,-0.55 28.36,8.48 17.8,10.23 44.613,26.94 52.183,37.49 8.18,11.39 19.418,18.92 31.575,23.79 -0.348,15.93 -0.672,30.09 -0.969,42.04" /><path
         id="path24"
         style="fill:#4699da;fill-opacity:1;fill-rule:nonzero;stroke:none"
         d="m 520.766,877.883 c -1.715,-0.606 -6.192,-2.512 -9,-3.496 -2.985,-1.074 -6.778,-2.586 -6.762,-3.653 0,-0.261 2.859,-155.73 2.859,-159.144 0,-32.024 16.321,-32.211 16.321,0 0,2.281 3.269,168.492 3.269,168.492 0,0 -3.93,-1.199 -6.687,-2.199" /><path
         id="path26"
         style="fill:#4699da;fill-opacity:1;fill-rule:nonzero;stroke:none"
         d="m 503.883,929.184 c 5.097,1.765 10.133,3.32 14.844,4.765 3.554,1.098 6.836,2.11 9.871,3.106 0.199,9.781 2.98,145.085 3.48,169.685 -12.156,-3.02 -22.726,-5.88 -31.449,-9.07 0.359,-18.46 2.98,-153.705 3.254,-168.486" /><path
         id="path28"
         style="fill:#4699da;fill-opacity:1;fill-rule:nonzero;stroke:none"
         d="m 517.473,1447.32 c -45.785,0 -26.344,-67.92 -22.715,-90.06 0.176,-1.03 3.707,-153.44 4.426,-188.4 6.949,1.83 13.847,3.53 20.55,5.18 4.809,1.17 9.411,2.32 13.836,3.44 0.707,33.67 4.078,179.11 4.176,180.07 2.734,23.66 26.727,89.77 -20.273,89.77" /><path
         id="path30"
         style="fill:#4699da;fill-opacity:1;fill-rule:nonzero;stroke:none"
         d="m 1265.85,1230.83 h -0.7 l -38.79,-211.76 h -53.23 l -49.73,258.41 h 42.32 l 34.56,-199.18 h 0.69 l 37.02,199.18 H 1293 l 36.68,-199.18 h 0.7 l 35.96,199.18 h 40.89 l -50.77,-258.41 h -53.93 l -36.68,211.76" /><path
         id="path32"
         style="fill:#4699da;fill-opacity:1;fill-rule:nonzero;stroke:none"
         d="m 1482.36,1048.68 c 28.22,0 34.59,34.07 34.59,65.91 0,31.84 -6.37,65.52 -34.59,65.52 -28.19,0 -34.9,-33.68 -34.9,-65.52 0,-31.84 6.71,-65.91 34.9,-65.91 z m 0,164.01 c 37.02,0 79.7,-20.37 79.7,-98.1 0,-79.98 -42.68,-98.48 -79.7,-98.48 -37.02,0 -80.03,18.5 -80.03,98.48 0,77.73 43.01,98.1 80.03,98.1" /><path
         id="path34"
         style="fill:#4699da;fill-opacity:1;fill-rule:nonzero;stroke:none"
         d="m 1589.2,1178.26 c 0,11.85 -0.35,22.95 -1.4,31.47 h 39.49 c 0.34,-11.47 1.41,-23.33 1.41,-34.8 h 0.7 c 5.29,14.8 19.04,37.76 46.19,37.76 2.84,0 4.93,-0.74 7.44,-1.1 v -42.95 c -3.91,1.11 -7.79,1.84 -12.36,1.84 -18,0 -37.74,-11.47 -37.74,-47 v -104.41 h -43.73 v 159.19" /><path
         id="path36"
         style="fill:#4699da;fill-opacity:1;fill-rule:nonzero;stroke:none"
         d="m 1710.57,1296.73 h 43.72 v -277.66 h -43.72 v 277.66" /><path
         id="path38"
         style="fill:#4699da;fill-opacity:1;fill-rule:nonzero;stroke:none"
         d="m 1858.45,1049.79 c 25.75,0 34.56,29.25 34.56,65.16 0,37.03 -9.87,64.05 -33.86,64.05 -24.34,0 -32.79,-24.8 -32.79,-62.94 0,-44.06 6.71,-66.27 32.09,-66.27 z m 78.27,246.94 v -245.09 c 0,-13.69 0.37,-25.54 1.42,-32.57 h -40.9 c -0.7,5.55 -1.42,16.66 -1.42,29.61 h -1.04 c -7.06,-16.29 -20.1,-32.57 -48.32,-32.57 -45.13,0 -63.81,45.17 -63.81,98.11 0,62.18 23.62,98.47 62.78,98.47 26.08,0 40.52,-15.55 46.89,-30.37 h 0.69 v 114.41 h 43.71" /><path
         id="path40"
         style="fill:#4699da;fill-opacity:1;fill-rule:nonzero;stroke:none"
         d="m 2080.77,1277.48 h 45.15 v -105.14 h 72.97 v 105.14 h 45.15 v -258.41 h -45.15 v 114.02 h -72.97 v -114.02 h -45.15 v 258.41" /><path
         id="path42"
         style="fill:#4699da;fill-opacity:1;fill-rule:nonzero;stroke:none"
         d="m 2378.37,1130.87 c 0,33.69 -10.56,50.73 -30.3,50.73 -22.93,0 -32.45,-25.55 -32.45,-50.73 z m 33.15,-102.55 c -9.17,-4.07 -28.21,-12.21 -54.28,-12.21 -58.55,0 -83.93,44.05 -83.93,95.52 0,57.01 28.56,101.06 74.76,101.06 39.12,0 72.62,-24.06 72.62,-101.81 V 1102 h -105.07 c 0,-32.59 12.35,-52.21 46.2,-52.21 26.8,0 39.48,8.53 47.58,14.81 l 2.12,-36.28" /><path
         id="path44"
         style="fill:#4699da;fill-opacity:1;fill-rule:nonzero;stroke:none"
         d="m 2545.87,1112.36 h -3.88 c -37.39,0 -59.59,-8.15 -59.59,-35.9 0,-17.4 10.93,-29.25 27.86,-29.25 26.09,0 35.61,20.35 35.61,54.42 z m -86.03,86.27 c 12.34,5.92 29.59,14.06 57.48,14.06 56.4,0 69.44,-28.88 69.44,-76.63 v -83.3 c 0,-13.7 1.43,-26.3 2.47,-33.69 h -39.48 c -2.13,7.39 -2.47,16.66 -2.47,25.91 h -0.7 c -10.94,-15.55 -24.7,-28.87 -50.78,-28.87 -28.22,0 -54.3,20.35 -54.3,55.89 0,51.84 40.2,64.8 95.57,64.8 h 8.8 v 7.02 c 0,18.88 -8.8,36.29 -33.85,36.29 -21.86,0 -41.26,-11.11 -49.71,-18.51 l -2.47,37.03" /><path
         id="path46"
         style="fill:#4699da;fill-opacity:1;fill-rule:nonzero;stroke:none"
         d="m 2629.78,1296.73 h 43.73 v -277.66 h -43.73 v 277.66" /><path
         id="path48"
         style="fill:#4699da;fill-opacity:1;fill-rule:nonzero;stroke:none"
         d="m 2728.16,1248.98 43.73,14.06 v -53.31 h 36.3 v -33.69 h -36.3 v -98.85 c 0,-20.37 7.04,-26.29 19.75,-26.29 7.74,0 13.38,2.22 16.55,4.07 v -32.57 c -6.68,-3.33 -16.21,-6.29 -29.26,-6.29 -32.44,0 -50.77,15.55 -50.77,55.52 v 104.41 h -28.9 v 33.69 h 28.9 v 39.25" /><path
         id="path50"
         style="fill:#4699da;fill-opacity:1;fill-rule:nonzero;stroke:none"
         d="m 2830.77,1296.73 h 43.72 V 1185.3 h 1.06 c 7.75,11.84 17.97,27.39 45.12,27.39 41.27,0 53.6,-32.21 53.6,-70.72 v -122.9 h -43.73 v 114.39 c 0,29.24 -7.04,41.47 -25.01,41.47 -22.94,0 -31.04,-20.36 -31.04,-44.8 v -111.06 h -43.72 v 277.66" /><path
         id="path52"
         style="fill:#4699da;fill-opacity:1;fill-rule:nonzero;stroke:none"
         d="m 1219.67,720.746 c 28.55,0 51.48,25.539 51.48,96.621 0,71.094 -22.93,96.633 -51.48,96.633 -28.57,0 -51.49,-25.539 -51.49,-96.633 0,-71.082 22.92,-96.621 51.49,-96.621 z m 0,229.539 c 51.14,0 98.02,-39.984 98.02,-132.918 0,-92.926 -46.88,-132.91 -98.02,-132.91 -51.13,0 -98.03,39.984 -98.03,132.91 0,92.934 46.9,132.918 98.03,132.918" /><path
         id="path54"
         style="fill:#4699da;fill-opacity:1;fill-rule:nonzero;stroke:none"
         d="m 1347.14,847.367 c 0,11.848 -0.36,22.938 -1.41,31.465 h 39.5 c 0.34,-11.484 1.41,-23.336 1.41,-34.812 h 0.7 c 5.3,14.816 19.04,37.777 46.19,37.777 2.83,0 4.93,-0.75 7.39,-1.117 v -42.953 c -3.86,1.121 -7.73,1.847 -12.33,1.847 -17.98,0 -37.72,-11.461 -37.72,-47.008 V 688.152 h -43.73 v 159.215" /><path
         id="path56"
         style="fill:#4699da;fill-opacity:1;fill-rule:nonzero;stroke:none"
         d="m 1536.07,721.844 c 27.49,0 38.42,20.734 38.42,64.054 0,39.985 -14.46,61.469 -35.27,61.09 -22.92,-0.379 -31.72,-22.574 -31.72,-61.457 0,-44.797 13.75,-63.687 28.57,-63.687 z m -68.01,-63.297 c 10.21,-5.938 30.68,-16.297 53.6,-16.297 41.26,0 47.96,29.988 47.96,59.98 v 18.149 h -0.71 c -7.04,-14.82 -19.39,-32.227 -47.95,-32.227 -25.39,0 -63.48,17.782 -63.48,94.793 0,52.571 18,98.852 65.6,98.852 26.44,0 38.79,-15.93 47.97,-32.59 h 1.39 c 0,10.008 1.04,19.625 1.42,29.625 h 39.48 c -0.7,-10 -1.41,-19.996 -1.41,-29.996 v -140.68 c 0,-59.609 -17.28,-102.183 -83.92,-102.183 -28.9,0 -51.84,7.769 -62.42,11.847 l 2.47,40.727" /><path
         id="path58"
         style="fill:#4699da;fill-opacity:1;fill-rule:nonzero;stroke:none"
         d="m 1745.26,781.453 h -3.87 c -37.38,0 -59.61,-8.156 -59.61,-35.902 0,-17.403 10.94,-29.25 27.86,-29.25 26.09,0 35.62,20.351 35.62,54.422 z m -86.05,86.258 c 12.36,5.93 29.63,14.086 57.48,14.086 56.44,0 69.47,-28.883 69.47,-76.637 v -83.316 c 0,-13.688 1.41,-26.274 2.46,-33.692 h -39.48 c -2.12,7.418 -2.49,16.668 -2.49,25.93 h -0.7 c -10.91,-15.559 -24.69,-28.883 -50.77,-28.883 -28.19,0 -54.29,20.36 -54.29,55.903 0,51.824 40.2,64.789 95.54,64.789 h 8.83 v 7.023 c 0,18.891 -8.83,36.293 -33.84,36.293 -21.88,0 -41.26,-11.105 -49.73,-18.527 l -2.48,37.031" /><path
         id="path60"
         style="fill:#4699da;fill-opacity:1;fill-rule:nonzero;stroke:none"
         d="m 1830.24,847.367 c 0,11.848 -0.36,22.938 -1.42,31.465 h 40.91 c 0.36,-9.633 1.4,-19.617 1.4,-29.262 h 1.06 -0.36 c 6.35,11.481 18.7,32.227 48.33,32.227 41.24,0 53.59,-32.227 53.59,-70.723 V 688.152 h -43.72 v 114.411 c 0,29.242 -7.06,41.457 -25.03,41.457 -22.94,0 -31.03,-20.352 -31.03,-44.79 V 688.152 h -43.73 v 159.215" /><path
         id="path62"
         style="fill:#4699da;fill-opacity:1;fill-rule:nonzero;stroke:none"
         d="m 2013.86,878.832 h 43.72 v -190.68 h -43.72 z m -0.71,81.074 h 45.15 v -45.168 h -45.15 v 45.168" /><path
         id="path64"
         style="fill:#4699da;fill-opacity:1;fill-rule:nonzero;stroke:none"
         d="m 2098.28,727.773 77.57,116.247 h -75.11 v 34.812 h 118.84 v -39.258 l -76.15,-116.605 h 78.6 v -34.817 h -123.75 v 39.621" /><path
         id="path66"
         style="fill:#4699da;fill-opacity:1;fill-rule:nonzero;stroke:none"
         d="m 2349.46,781.453 h -3.88 c -37.38,0 -59.59,-8.156 -59.59,-35.902 0,-17.403 10.94,-29.25 27.85,-29.25 26.1,0 35.62,20.351 35.62,54.422 z m -86.05,86.258 c 12.36,5.93 29.64,14.086 57.5,14.086 56.42,0 69.45,-28.883 69.45,-76.637 v -83.316 c 0,-13.688 1.4,-26.274 2.48,-33.692 h -39.48 c -2.13,7.418 -2.48,16.668 -2.48,25.93 h -0.72 c -10.92,-15.559 -24.67,-28.883 -50.75,-28.883 -28.22,0 -54.31,20.36 -54.31,55.903 0,51.824 40.19,64.789 95.55,64.789 h 8.81 v 7.023 c 0,18.891 -8.81,36.293 -33.84,36.293 -21.85,0 -41.27,-11.105 -49.72,-18.527 l -2.49,37.031" /><path
         id="path68"
         style="fill:#4699da;fill-opacity:1;fill-rule:nonzero;stroke:none"
         d="m 2440.64,918.063 43.72,14.074 v -53.305 h 36.33 v -33.699 h -36.33 v -98.848 c 0,-20.363 7.06,-26.265 19.76,-26.265 7.77,0 13.38,2.191 16.57,4.043 v -32.567 c -6.72,-3.344 -16.21,-6.297 -29.27,-6.297 -32.43,0 -50.78,15.551 -50.78,55.535 v 104.399 h -28.91 v 33.699 h 28.91 v 39.231" /><path
         id="path70"
         style="fill:#4699da;fill-opacity:1;fill-rule:nonzero;stroke:none"
         d="m 2556.29,878.832 h 43.73 v -190.68 h -43.73 z m -5.57,81.074 h 45.13 v -45.168 h -45.13 v 45.168" /><path
         id="path72"
         style="fill:#4699da;fill-opacity:1;fill-rule:nonzero;stroke:none"
         d="m 2713.56,717.762 c 28.2,0 34.54,34.086 34.54,65.902 0,31.863 -6.34,65.543 -34.54,65.543 -28.21,0 -34.9,-33.68 -34.9,-65.543 0,-31.816 6.69,-65.902 34.9,-65.902 z m 0,164.035 c 37.02,0 79.67,-20.375 79.67,-98.133 0,-79.957 -42.65,-98.465 -79.67,-98.465 -37.04,0 -80.05,18.508 -80.05,98.465 0,77.758 43.01,98.133 80.05,98.133" /><path
         id="path74"
         style="fill:#4699da;fill-opacity:1;fill-rule:nonzero;stroke:none"
         d="m 2831.34,847.367 c 0,11.848 -0.39,22.938 -1.44,31.465 h 40.9 c 0.36,-9.633 1.43,-19.617 1.43,-29.262 h 1.04 -0.34 c 6.34,11.481 18.68,32.227 48.29,32.227 41.27,0 53.6,-32.227 53.6,-70.723 V 688.152 h -43.71 v 114.411 c 0,29.242 -7.06,41.457 -25.06,41.457 -22.88,0 -31,-20.352 -31,-44.79 V 688.152 h -43.71 v 159.215" /><path
         id="path76"
         style="fill:#4699da;fill-opacity:1;fill-rule:nonzero;stroke:none"
         d="M 96.9727,302.359 H 203.789 V 277.391 H 125.898 V 204.43 h 74.278 V 179.449 H 125.898 V 97.9414 h 82.161 V 72.9609 H 96.9727 V 302.359" /><path
         id="path78"
         style="fill:#4699da;fill-opacity:1;fill-rule:nonzero;stroke:none"
         d="m 362.844,109.121 c 0,-12.1601 0.984,-24.3319 1.308,-36.1601 h -26.621 l -0.98,24.9805 h -0.656 c -8.879,-19.0703 -23.012,-27.2812 -42.399,-27.2812 -29.254,0 -48.973,16.7695 -48.973,53.5698 v 116.348 h 27.61 V 132.441 c 0,-26.613 9.859,-38.1207 27.609,-38.1207 21.692,0 35.492,15.1287 35.492,45.3597 v 100.898 h 27.61 V 109.121" /><path
         id="path80"
         style="fill:#4699da;fill-opacity:1;fill-rule:nonzero;stroke:none"
         d="m 403.57,204.43 c 0,12.148 -0.984,24.308 -1.312,36.148 h 26.621 l 0.984,-26.289 h 0.66 c 8.872,20.383 23.008,28.59 47.657,28.59 V 215.59 c -3.285,0.66 -6.907,0.988 -10.52,0.988 -21.363,0 -36.48,-18.398 -36.48,-54.879 V 72.9609 H 403.57 V 204.43" /><path
         id="path82"
         style="fill:#4699da;fill-opacity:1;fill-rule:nonzero;stroke:none"
         d="m 560.656,93.0117 c 26.293,0 38.457,21.6873 38.457,63.7583 0,42.07 -12.164,63.761 -38.457,63.761 -26.289,0 -38.453,-21.691 -38.453,-63.761 0,-42.071 12.164,-63.7583 38.453,-63.7583 z m 0,149.8673 c 44.375,0 67.375,-33.527 67.375,-86.109 0,-52.59 -23,-86.1098 -67.375,-86.1098 -44.371,0 -67.371,33.5198 -67.371,86.1098 0,52.582 23,86.109 67.371,86.109" /><path
         id="path84"
         style="fill:#4699da;fill-opacity:1;fill-rule:nonzero;stroke:none"
         d="m 722.332,93.0117 c 25.313,0 36.813,21.6873 36.813,63.7583 0,42.07 -11.5,63.761 -36.813,63.761 -25.305,0 -36.809,-21.691 -36.809,-63.761 0,-42.071 11.504,-63.7583 36.809,-63.7583 z M 657.922,209.68 c 0,10.191 -0.988,20.711 -1.317,30.898 h 26.622 l 0.988,-24.656 h 0.656 c 7.227,13.148 19.719,26.957 44.035,26.957 34.516,0 57.848,-28.258 57.848,-86.109 0,-57.8403 -23.332,-86.1098 -57.848,-86.1098 -19.058,0 -31.551,7.5703 -42.722,25.3086 h -0.661 V 1.96875 H 657.922 V 209.68" /><path
         id="path86"
         style="fill:#4699da;fill-opacity:1;fill-rule:nonzero;stroke:none"
         d="m 907.016,169.59 c 0,34.84 -10.844,52.262 -32.868,52.262 -17.75,0 -33.523,-13.153 -34.183,-52.262 z m -67.051,-21.039 c 0,-38.789 15.117,-56.8596 45.687,-56.8596 13.801,0 28.918,6.9102 38.45,13.8086 l 1.316,-24.9805 c -13.148,-6.2382 -30.234,-9.8593 -46.996,-9.8593 -44.371,0 -67.375,33.5198 -67.375,86.1098 0,52.582 23.004,86.109 64.742,86.109 37.797,0 58.832,-30.238 58.832,-79.539 v -14.789 h -94.656" /><path
         id="path88"
         style="fill:#4699da;fill-opacity:1;fill-rule:nonzero;stroke:none"
         d="m 1052.59,155.121 c -4.93,0.66 -11.83,0.66 -19.39,0.66 -32.53,0 -47.981,-15.441 -47.981,-34.84 0,-17.742 9.203,-29.2496 28.261,-29.2496 24,0 39.11,19.3866 39.11,42.3986 z m -80.192,73.949 c 13.801,8.871 30.892,13.809 47.332,13.809 24.64,0 39.43,-10.52 44.69,-15.777 7.23,-7.231 14.47,-17.422 14.47,-41.082 V 98.6016 c 0,-9.8711 0.65,-19.7305 1.31,-25.6407 h -24.98 l -1.65,22.6797 h -0.65 c -7.56,-12.8203 -21.36,-24.9804 -47,-24.9804 -27.604,0 -48.311,16.1093 -48.311,48.3198 0,32.54 21.364,56.52 78.881,56.52 h 16.1 v 7.57 c 0,12.481 -0.98,19.719 -6.24,26.942 -5.59,7.558 -16.44,10.519 -27.94,10.519 -17.09,0 -33.519,-6.902 -43.055,-17.422 l -2.957,25.961" /><path
         id="path90"
         style="fill:#4699da;fill-opacity:1;fill-rule:nonzero;stroke:none"
         d="m 1118.63,204.43 c 0,12.148 -0.99,24.308 -1.32,36.148 h 26.62 l 0.99,-24.988 h 0.66 c 8.87,19.082 23.01,27.289 42.4,27.289 29.24,0 48.97,-16.77 48.97,-53.57 V 72.9609 h -27.61 V 181.09 c 0,26.621 -9.86,38.121 -27.61,38.121 -21.69,0 -35.49,-15.109 -35.49,-45.359 V 72.9609 h -27.61 V 204.43" /><path
         id="path92"
         style="fill:#4699da;fill-opacity:1;fill-rule:nonzero;stroke:none"
         d="m 1391.38,200.48 h 22.35 c 30.9,0 42.72,20.379 42.72,40.43 0,25.641 -16.75,37.789 -42.06,37.789 h -23.01 z m -28.92,101.879 h 58.83 c 24.32,0 37.8,-5.91 48.31,-15.769 11.84,-11.168 17.1,-26.949 17.1,-43.711 0,-24.328 -11.51,-47.66 -45.36,-54.891 v -0.66 c 13.8,-2.629 20.37,-9.199 24.97,-22.348 l 32.21,-92.0191 h -31.22 l -26.29,77.5701 c -6.58,19.059 -14.79,26.289 -36.48,26.289 h -13.15 V 72.9609 h -28.92 V 302.359" /><path
         id="path94"
         style="fill:#4699da;fill-opacity:1;fill-rule:nonzero;stroke:none"
         d="m 1616.16,169.59 c 0,34.84 -10.84,52.262 -32.86,52.262 -17.76,0 -33.53,-13.153 -34.18,-52.262 z m -67.04,-21.039 c 0,-38.789 15.11,-56.8596 45.68,-56.8596 13.8,0 28.92,6.9102 38.45,13.8086 l 1.32,-24.9805 c -13.15,-6.2382 -30.24,-9.8593 -47,-9.8593 -44.38,0 -67.37,33.5198 -67.37,86.1098 0,52.582 22.99,86.109 64.73,86.109 37.81,0 58.84,-30.238 58.84,-79.539 v -14.789 h -94.65" /><path
         id="path96"
         style="fill:#4699da;fill-opacity:1;fill-rule:nonzero;stroke:none"
         d="m 1731.16,93.0117 c 25.31,0 36.82,21.6873 36.82,63.7583 0,42.07 -11.51,63.761 -36.82,63.761 -25.3,0 -36.8,-21.691 -36.8,-63.761 0,-42.071 11.5,-63.7583 36.8,-63.7583 z m 64.42,-27.2812 C 1795.58,19.3906 1760.74,0 1723.93,0 c -14.12,0 -36.8,5.25 -48.96,10.1914 l 1.31,27.9297 c 11.84,-7.8906 30.9,-14.4492 46.01,-14.4492 33.85,0 47,20.039 47,48.957 v 26.3008 h -0.65 c -10.85,-19.0703 -25.65,-28.2695 -44.05,-28.2695 -34.51,0 -57.84,28.2695 -57.84,86.1098 0,57.851 23.33,86.109 60.8,86.109 16.76,0 31.88,-10.52 41.09,-26.629 h 0.65 l 0.99,24.328 h 26.62 c -0.33,-9.859 -1.32,-20.379 -1.32,-30.566 V 65.7305" /><path
         id="path98"
         style="fill:#4699da;fill-opacity:1;fill-rule:nonzero;stroke:none"
         d="m 1836.31,240.578 h 27.6 V 72.9609 h -27.6 z m 28.92,69.024 V 276.73 h -30.24 v 32.872 h 30.24" /><path
         id="path100"
         style="fill:#4699da;fill-opacity:1;fill-rule:nonzero;stroke:none"
         d="m 1966.44,93.0117 c 26.3,0 38.46,21.6873 38.46,63.7583 0,42.07 -12.16,63.761 -38.46,63.761 -26.29,0 -38.45,-21.691 -38.45,-63.761 0,-42.071 12.16,-63.7583 38.45,-63.7583 z m 0,149.8673 c 44.37,0 67.38,-33.527 67.38,-86.109 0,-52.59 -23.01,-86.1098 -67.38,-86.1098 -44.36,0 -67.37,33.5198 -67.37,86.1098 0,52.582 23.01,86.109 67.37,86.109" /><path
         id="path102"
         style="fill:#4699da;fill-opacity:1;fill-rule:nonzero;stroke:none"
         d="m 2066.33,204.43 c 0,12.148 -0.98,24.308 -1.31,36.148 h 26.62 l 0.99,-24.988 h 0.66 c 8.87,19.082 23,27.289 42.4,27.289 29.24,0 48.96,-16.77 48.96,-53.57 V 72.9609 h -27.61 V 181.09 c 0,26.621 -9.86,38.121 -27.6,38.121 -21.7,0 -35.5,-15.109 -35.5,-45.359 V 72.9609 h -27.61 V 204.43" /><path
         id="path104"
         style="fill:#4699da;fill-opacity:1;fill-rule:nonzero;stroke:none"
         d="M 2974.78,422.559 H 96.8555 v 13.863 H 2974.78 v -13.863" /></g></g></svg>